{
  "accessors": [
    {
      "bufferView": 2,
      "componentType": 5126,
      "count": 6323,
      "max": [
        0.82874250411987305,
        0.41525512933731079,
        1.2426360845565796
      ],
      "min": [
        -1.999190092086792,
        -0.33759480714797974,
        -0.99343830347061157
      ],
      "type": "VEC3"
    },
    {
      "bufferView": 2,
      "byteOffset": 75876,
      "componentType": 5126,
      "count": 6323,
      "max": [
        0.62942034006118774,
        0.99999666213989258,
        0.83899545669555664
      ],
      "min": [
        -0.85690855979919434,
        -0.63635998964309692,
        -0.9298204779624939
      ],
      "type": "VEC3"
    },
    {
      "bufferView": 1,
      "componentType": 5126,
      "count": 6323,
      "max": [
        1.0000001192092896,
        1.0000001192092896
      ],
      "min": [
        0,
        0
      ],
      "type": "VEC2"
    },
    {
      "bufferView": 0,
      "componentType": 5125,
      "count": 36864,
      "max": [
        6322
      ],
      "min": [
        0
      ],
      "type": "SCALAR"
    },
    {
      "bufferView": 2,
      "byteOffset": 151752,
      "componentType": 5126,
      "count": 6323,
      "max": [
        0.88931316137313843,
        0.28904855251312256,
        1.1275300979614258
      ],
      "min": [
        -1.9990670680999756,
        -0.27826219797134399,
        -0.99236774444580078
      ],
      "type": "VEC3"
    },
    {
      "bufferView": 2,
      "byteOffset": 227628,
      "componentType": 5126,
      "count": 6323,
      "max": [
        0.71113646030426025,
        0.99999833106994629,
        0.95315301418304443
      ],
      "min": [
        -0.67551290988922119,
        -0.99370318651199341,
        -0.9614441990852356
      ],
      "type": "VEC3"
    },
    {
      "bufferView": 1,
      "byteOffset": 50584,
      "componentType": 5126,
      "count": 6323,
      "max": [
        1.0000001192092896,
        1.0000001192092896
      ],
      "min": [
        0,
        0
      ],
      "type": "VEC2"
    },
    {
      "bufferView": 0,
      "byteOffset": 147456,
      "componentType": 5125,
      "count": 36864,
      "max": [
        6322
      ],
      "min": [
        0
      ],
      "type": "SCALAR"
    },
    {
      "bufferView": 2,
      "byteOffset": 303504,
      "componentType": 5126,
      "count": 6323,
      "max": [
        0.94972282648086548,
        0.32111537456512451,
        1.0012840032577515
      ],
      "min": [
        -1.9986221790313721,
        -0.79402410984039307,
        -0.99528688192367554
      ],
      "type": "VEC3"
    },
    {
      "bufferView": 2,
      "byteOffset": 379380,
      "componentType": 5126,
      "count": 6323,
      "max": [
        0.58972263336181641,
        0.99999856948852539,
        0.99040532112121582
      ],
      "min": [
        -0.6828383207321167,
        -0.96366900205612183,
        -0.95569950342178345
      ],
      "type": "VEC3"
    },
    {
      "bufferView": 1,
      "byteOffset": 101168,
      "componentType": 5126,
      "count": 6323,
      "max": [
        1.0000001192092896,
        1.0000001192092896
      ],
      "min": [
        0,
        0
      ],
      "type": "VEC2"
    },
    {
      "bufferView": 0,
      "byteOffset": 294912,
      "componentType": 5125,
      "count": 36864,
      "max": [
        6322
      ],
      "min": [
        0
      ],
      "type": "SCALAR"
    },
    {
      "bufferView": 2,
      "byteOffset": 455256,
      "componentType": 5126,
      "count": 3138,
      "max": [
        0.32980027794837952,
        1.1109517812728882,
        1.5590378046035767
      ],
      "min": [
        -2.1557269096374512,
        -3.9456081390380859,
        -0.061627235263586044
      ],
      "type": "VEC3"
    },
    {
      "bufferView": 2,
      "byteOffset": 492912,
      "componentType": 5126,
      "count": 3138,
      "max": [
        1,
        0.91972345113754272,
        1
      ],
      "min": [
        -1,
        -0.91972345113754272,
        -1
      ],
      "type": "VEC3"
    },
    {
      "bufferView": 1,
      "byteOffset": 151752,
      "componentType": 5126,
      "count": 3138,
      "max": [
        1.0000001192092896,
        1.0000001192092896
      ],
      "min": [
        0,
        -1.1102231569740545e-16
      ],
      "type": "VEC2"
    },
    {
      "bufferView": 0,
      "byteOffset": 442368,
      "componentType": 5125,
      "count": 11520,
      "max": [
        3137
      ],
      "min": [
        0
      ],
      "type": "SCALAR"
    },
    {
      "bufferView": 2,
      "byteOffset": 530568,
      "componentType": 5126,
      "count": 2313,
      "max": [
        0.24904720485210419,
        1.230070948600769,
        1.5998580455780029
      ],
      "min": [
        -2.2028288841247559,
        -1.0112844705581665,
        -0.10872930288314819
      ],
      "type": "VEC3"
    },
    {
      "bufferView": 2,
      "byteOffset": 558324,
      "componentType": 5126,
      "count": 2313,
      "max": [
        1,
        1,
        1
      ],
      "min": [
        -1,
        -1,
        -1
      ],
      "type": "VEC3"
    },
    {
      "bufferView": 1,
      "byteOffset": 176856,
      "componentType": 5126,
      "count": 2313,
      "max": [
        0.87500011920928955,
        1.0000001192092896
      ],
      "min": [
        0,
        0
      ],
      "type": "VEC2"
    },
    {
      "bufferView": 0,
      "byteOffset": 488448,
      "componentType": 5125,
      "count": 7200,
      "max": [
        2312
      ],
      "min": [
        0
      ],
      "type": "SCALAR"
    }
  ],
  "asset": {
    "extras": {
      "author": "S.D.C. (https://sketchfab.com/3Duae)",
      "license": "CC-BY-4.0 (http://creativecommons.org/licenses/by/4.0/)",
      "source": "https://sketchfab.com/3d-models/free-animated-3d-flags-ac8c876ac1a94179b2e827454c1ecc97",
      "title": "( FREE ) Animated 3D flags"
    },
    "generator": "Sketchfab-10.10.1-rc1",
    "version": "2.0"
  },
  "bufferViews": [
    {
      "buffer": 0,
      "byteLength": 517248,
      "byteOffset": 0,
      "name": "floatBufferViews",
      "target": 34963
    },
    {
      "buffer": 0,
      "byteLength": 195360,
      "byteOffset": 517248,
      "byteStride": 8,
      "name": "floatBufferViews",
      "target": 34962
    },
    {
      "buffer": 0,
      "byteLength": 586080,
      "byteOffset": 712608,
      "byteStride": 12,
      "name": "floatBufferViews",
      "target": 34962
    }
  ],
  "buffers": [
    {
      "byteLength": 1298688,
      "uri": "Flag.bin"
    }
  ],
  "materials": [
    {
      "doubleSided": true,
      "emissiveFactor": [
        0,
        0,
        0
      ],
      "name": "Material.003",
      "pbrMetallicRoughness": {
        "baseColorFactor": [
          0.80000000000000004,
          0.016770500000000001,
          0,
          1
        ],
        "metallicFactor": 0,
        "roughnessFactor": 0.5
      }
    },
    {
      "doubleSided": true,
      "emissiveFactor": [
        0,
        0,
        0
      ],
      "name": "Material.004",
      "pbrMetallicRoughness": {
        "baseColorFactor": [
          0,
          0.246194,
          0.000551382,
          1
        ],
        "metallicFactor": 0,
        "roughnessFactor": 0.5
      }
    },
    {
      "doubleSided": true,
      "emissiveFactor": [
        0,
        0,
        0
      ],
      "name": "Material.005",
      "pbrMetallicRoughness": {
        "baseColorFactor": [
          0,
          0,
          0,
          1
        ],
        "metallicFactor": 0,
        "roughnessFactor": 0.5
      }
    },
    {
      "doubleSided": true,
      "emissiveFactor": [
        0,
        0,
        0
      ],
      "name": "Material",
      "pbrMetallicRoughness": {
        "baseColorFactor": [
          0.30319800000000002,
          0.30319800000000002,
          0.30319800000000002,
          1
        ],
        "metallicFactor": 0.52000000000000002,
        "roughnessFactor": 0.19142899999999999
      }
    },
    {
      "doubleSided": true,
      "emissiveFactor": [
        0,
        0,
        0
      ],
      "name": "Material.001",
      "pbrMetallicRoughness": {
        "baseColorFactor": [
          0.083531800000000003,
          0.083531800000000003,
          0.083531800000000003,
          1
        ],
        "metallicFactor": 0.69142899999999996,
        "roughnessFactor": 0.5
      }
    }
  ],
  "meshes": [
    {
      "primitives": [
        {
          "attributes": {
            "NORMAL": 1,
            "POSITION": 0,
            "TEXCOORD_0": 2
          },
          "indices": 3,
          "material": 0,
          "mode": 4
        }
      ]
    },
    {
      "primitives": [
        {
          "attributes": {
            "NORMAL": 5,
            "POSITION": 4,
            "TEXCOORD_0": 6
          },
          "indices": 7,
          "material": 1,
          "mode": 4
        }
      ]
    },
    {
      "primitives": [
        {
          "attributes": {
            "NORMAL": 9,
            "POSITION": 8,
            "TEXCOORD_0": 10
          },
          "indices": 11,
          "material": 2,
          "mode": 4
        }
      ]
    },
    {
      "primitives": [
        {
          "attributes": {
            "NORMAL": 13,
            "POSITION": 12,
            "TEXCOORD_0": 14
          },
          "indices": 15,
          "material": 3,
          "mode": 4
        }
      ]
    },
    {
      "primitives": [
        {
          "attributes": {
            "NORMAL": 17,
            "POSITION": 16,
            "TEXCOORD_0": 18
          },
          "indices": 19,
          "material": 4,
          "mode": 4
        }
      ]
    }
  ],
  "nodes": [
    {
      "children": [
        1
      ],
      "name": "RootNode (gltf orientation matrix)",
      "rotation": [
        -0.70710678118654746,
        -0,
        -0,
        0.70710678118654757
      ]
    },
    {
      "children": [
        2
      ],
      "name": "RootNode (model correction matrix)"
    },
    {
      "children": [
        3
      ],
      "name": "root"
    },
    {
      "children": [
        4,
        6,
        8,
        10
      ],
      "matrix": [
        1,
        0,
        0,
        0,
        0,
        2.2204460492503131e-16,
        1,
        0,
        0,
        -1,
        2.2204460492503131e-16,
        0,
        0,
        0,
        0,
        1
      ],
      "name": "GLTF_SceneRootNode"
    },
    {
      "children": [
        5
      ],
      "matrix": [
        1,
        0,
        0,
        0,
        0,
        0,
        1,
        0,
        0,
        -1,
        0,
        0,
        0,
        0,
        0,
        1
      ],
      "name": "Plane_0"
    },
    {
      "mesh": 0,
      "name": ""
    },
    {
      "children": [
        7
      ],
      "matrix": [
        1,
        0,
        0,
        0,
        0,
        0,
        1,
        0,
        0,
        -1,
        0,
        0,
        1.2609078884124756,
        0,
        0.71410638093948364,
        1
      ],
      "name": "Plane.001_3"
    },
    {
      "mesh": 1,
      "name": ""
    },
    {
      "children": [
        9
      ],
      "matrix": [
        1,
        0,
        0,
        0,
        0,
        0,
        1,
        0,
        0,
        -1,
        0,
        0,
        2.2524955272674561,
        0,
        1.5016636848449707,
        1
      ],
      "name": "Plane.002_4"
    },
    {
      "mesh": 2,
      "name": ""
    },
    {
      "children": [
        11,
        12
      ],
      "name": "Circle_5"
    },
    {
      "mesh": 3,
      "name": ""
    },
    {
      "mesh": 4,
      "name": ""
    }
  ],
  "scene": 0,
  "scenes": [
    {
      "name": "OSG_Scene",
      "nodes": [
        0
      ]
    }
  ]
}

